<?xml version="1.0" encoding="UTF-8"?>
<svg width="136px" height="28px" viewBox="0 0 136 28" version="1.1" xmlns="http://www.w3.org/2000/svg" xmlns:xlink="http://www.w3.org/1999/xlink">
    <!-- Generator: Sketch 48.1 (47250) - http://www.bohemiancoding.com/sketch -->
    <title>Page 1</title>
    <desc>Created with Sketch.</desc>
    <defs></defs>
    <g id="Programs-page-layout" stroke="none" stroke-width="1" fill="none" fill-rule="evenodd" transform="translate(-165.000000, -28.000000)">
        <g id="Page-1" transform="translate(165.000000, 28.000000)">
            <path d="M70.7694,14.9349 C70.7694,14.1039 70.5424,13.4329 70.0954,12.9409 C69.6744,12.4769 69.1404,12.1059 68.5074,11.8409 C67.8874,11.5849 67.2244,11.3879 66.5344,11.2539 C65.8814,11.1279 65.2494,10.9819 64.6564,10.8199 C64.1004,10.6689 63.6434,10.4809 63.2974,10.2619 C63.0144,10.0799 62.8884,9.8429 62.8884,9.4919 C62.8884,8.9539 63.1334,8.2409 65.2574,8.2409 C67.6794,8.2409 67.8234,9.3309 67.8704,9.6899 L67.8734,9.7099 L70.3874,9.7099 L70.3834,9.6849 C70.2644,8.6329 69.8154,7.7719 69.0494,7.1289 C68.1504,6.3859 66.9184,6.0089 65.3874,6.0089 C63.6504,6.0089 62.4804,6.2839 61.7044,6.8749 C60.8304,7.5309 60.3864,8.4669 60.3864,9.6569 C60.3864,10.4719 60.6164,11.1279 61.0694,11.6089 C61.4894,12.0559 62.0214,12.4109 62.6494,12.6649 C63.2374,12.9039 63.9014,13.0979 64.6214,13.2419 C65.3164,13.3799 65.9304,13.5249 66.4954,13.6849 C67.0394,13.8369 67.4954,14.0359 67.8494,14.2749 C68.1324,14.4649 68.2704,14.7349 68.2704,15.0999 C68.2704,15.6749 67.9824,16.0569 67.3644,16.3019 C67.0784,16.4119 66.7634,16.4929 66.4294,16.5429 C65.7524,16.6389 64.9614,16.5669 64.2534,16.3449 C63.3304,16.0309 62.8304,15.5139 62.6814,14.7179 L60.1064,14.7179 C60.2294,15.8399 60.7374,16.7919 61.5784,17.4759 C62.5734,18.3199 63.9184,18.7479 65.5794,18.7479 C67.2734,18.7479 68.4584,18.4669 69.3094,17.8669 C70.2784,17.1919 70.7694,16.2059 70.7694,14.9349" id="Fill-1" fill="#141516"></path>
            <path d="M77.4902,8.5603 C77.9712,8.3533 78.5762,8.3363 79.2612,8.3363 C79.9412,8.3363 80.5292,8.5223 81.0592,8.9063 C81.5792,9.2793 81.9682,9.7823 82.2162,10.4053 L82.3072,10.6313 L84.9562,10.6313 L84.8112,10.1683 C84.4252,8.9223 83.7112,7.9123 82.6892,7.1633 C81.6222,6.3973 80.3412,6.0083 78.8822,6.0083 C76.9612,6.0083 75.4882,6.5963 74.3802,7.8043 C73.2642,9.0233 72.6982,10.5613 72.6982,12.3753 C72.6982,14.1923 73.2652,15.7333 74.3822,16.9563 C75.4932,18.1613 76.9652,18.7473 78.8822,18.7473 C80.3432,18.7473 81.6262,18.3573 82.6962,17.5883 C83.7192,16.8313 84.4322,15.8223 84.8112,14.5883 L84.9562,14.1243 L82.3062,14.1243 L82.2142,14.3513 C81.9732,14.9663 81.5842,15.4693 81.0572,15.8453 C80.5362,16.2313 79.9492,16.4193 79.2612,16.4193 C77.8762,16.4193 76.9502,16.0773 76.2602,15.3093 C75.5462,14.5173 75.1992,13.5583 75.1992,12.3753 C75.1992,11.1883 75.5482,10.2303 76.2682,9.4463 C76.5912,9.0803 76.9992,8.7833 77.4782,8.5643 L77.4902,8.5603 Z" id="Fill-3" fill="#141516"></path>
            <path d="M91.6548,6.4079 L91.6528,6.4129 L91.6378,6.4199 C91.0488,6.6929 90.5408,7.0399 90.1298,7.4499 L89.6918,7.8869 L89.6918,6.0089 L87.1918,6.0089 L87.1918,18.7479 L89.6918,18.7479 L89.6918,13.1839 C89.6918,11.9099 90.0468,10.8069 90.7488,9.9049 C91.4898,8.9599 92.4208,8.5009 93.5908,8.5009 L94.1648,8.5009 L94.1648,6.0089 L93.6848,6.0089 C92.9038,6.0089 92.2218,6.1429 91.6548,6.4079" id="Fill-5" fill="#141516"></path>
            <path d="M52.1933,16.2553 C50.4933,16.2553 49.1103,14.8713 49.1103,13.1693 L49.1103,6.0083 L46.6133,6.0083 L46.6133,13.1693 C46.6133,16.2453 49.1163,18.7473 52.1933,18.7473 C55.2703,18.7473 57.7733,16.2453 57.7733,13.1693 L57.7733,6.0083 L55.2743,6.0083 L55.2743,13.1693 C55.2743,14.8713 53.8923,16.2553 52.1933,16.2553" id="Fill-7" fill="#141516"></path>
            <path d="M129.5078,6.0084 C126.4308,6.0084 123.9278,8.5104 123.9278,11.5864 L123.9278,18.7474 L126.4268,18.7474 L126.4268,11.5864 C126.4268,9.8844 127.8088,8.5004 129.5078,8.5004 C131.2078,8.5004 132.5908,9.8844 132.5908,11.5864 L132.5908,18.7474 L135.0878,18.7474 L135.0878,11.5864 C135.0878,8.5104 132.5848,6.0084 129.5078,6.0084" id="Fill-9" fill="#141516"></path>
            <path d="M97.613,11.1686 L97.723,10.8326 C97.924,10.2096 98.249,9.6956 98.716,9.2576 C99.392,8.6376 100.209,8.3366 101.217,8.3366 C102.224,8.3366 103.04,8.6376 103.716,9.2576 C104.183,9.6926 104.509,10.2086 104.711,10.8326 L104.82,11.1686 L97.613,11.1686 Z M101.217,6.0086 C99.358,6.0086 97.819,6.6436 96.642,7.8956 C95.542,9.1026 94.984,10.6416 94.984,12.4716 C94.984,14.2216 95.536,15.6156 96.719,16.8606 C97.908,18.1126 99.462,18.7476 101.335,18.7476 C102.814,18.7476 104.046,18.3896 104.994,17.6846 C105.791,17.0976 106.43,16.2756 106.893,15.2406 L106.906,15.2106 L104.067,15.2106 L104.061,15.2196 C103.411,16.0276 102.527,16.4196 101.361,16.4196 C100.28,16.4196 99.416,16.0966 98.721,15.4306 C98.236,14.9666 97.874,14.5246 97.677,13.8726 L97.576,13.5416 L107.45,13.5416 L107.45,12.4716 C107.45,10.6366 106.89,9.0956 105.788,7.8906 C104.616,6.6416 103.078,6.0086 101.217,6.0086 Z" id="Fill-11" fill="#141516"></path>
            <path d="M111.8279,11.1686 L111.9369,10.8326 C112.1389,10.2086 112.4639,9.6936 112.9299,9.2576 C113.6059,8.6376 114.4229,8.3366 115.4309,8.3366 C116.4369,8.3366 117.2539,8.6376 117.9289,9.2576 C118.3969,9.6926 118.7229,10.2076 118.9249,10.8326 L119.0339,11.1686 L111.8279,11.1686 Z M115.4309,6.0086 C113.5729,6.0086 112.0329,6.6436 110.8549,7.8956 C109.7559,9.1016 109.1979,10.6406 109.1979,12.4716 C109.1979,14.2216 109.7499,15.6156 110.9329,16.8606 C112.1219,18.1126 113.6759,18.7476 115.5499,18.7476 C117.0279,18.7476 118.2579,18.3896 119.2069,17.6846 C120.0039,17.0986 120.6419,16.2766 121.1069,15.2406 L121.1199,15.2106 L118.2809,15.2106 L118.2739,15.2196 C117.6239,16.0276 116.7409,16.4196 115.5749,16.4196 C114.4929,16.4196 113.6299,16.0966 112.9349,15.4306 C112.4499,14.9666 112.0879,14.5236 111.8909,13.8726 L111.7899,13.5416 L121.6639,13.5416 L121.6639,12.4716 C121.6639,10.6366 121.1039,9.0956 120.0019,7.8906 C118.8289,6.6416 117.2909,6.0086 115.4309,6.0086 Z" id="Fill-13" fill="#141516"></path>
            <g id="Group-26">
                <path d="M23.1159,0 C22.8609,0 22.6029,0.018 22.3439,0.054 L4.7739,2.505 C1.7449,2.927 -0.3691,5.725 0.0539,8.754 L1.6199,19.983 C2.0059,22.752 4.3789,24.756 7.0979,24.756 C7.3529,24.756 7.6109,24.739 7.8699,24.702 L25.4399,22.252 C28.4689,21.829 30.5829,19.031 30.1599,16.002 L28.5939,4.774 C28.2079,2.004 25.8349,0 23.1159,0 M23.1159,2.484 C24.6269,2.484 25.9239,3.616 26.1339,5.117 L27.6999,16.345 C27.9319,18.013 26.7649,19.559 25.0969,19.791 L7.5269,22.242 C7.3839,22.262 7.2399,22.272 7.0979,22.272 C5.5869,22.272 4.2899,21.14 4.0799,19.639 L2.5139,8.411 C2.2819,6.744 3.4489,5.198 5.1169,4.965 L22.6869,2.514 C22.8299,2.494 22.9739,2.484 23.1159,2.484" id="Fill-15" fill="#141516"></path>
                <path d="M36.1914,18.7477 C36.1914,23.4877 32.3484,27.3307 27.6084,27.3307 C22.8684,27.3307 19.0254,23.4877 19.0254,18.7477 C19.0254,14.0077 22.8684,10.1647 27.6084,10.1647 C32.3484,10.1647 36.1914,14.0077 36.1914,18.7477" id="Fill-17" fill="#006AFF"></path>
                <path d="M31.2402,19.022 C31.4472,18.897 31.4472,18.598 31.2402,18.474 L26.1822,15.434 C25.9692,15.306 25.6982,15.46 25.6982,15.708 L25.6982,21.787 C25.6982,22.036 25.9692,22.189 26.1822,22.061 L31.2402,19.022 Z" id="Fill-19" fill="#FFFFFF"></path>
            </g>
        </g>
    </g>
</svg>